<svg width="14" height="14" viewBox="0 0 14 14" fill="none" xmlns="http://www.w3.org/2000/svg">
<path d="M1 3.40001C1 2.73727 1.59695 2.20001 2.33333 2.20001H11.6667C12.4031 2.20001 13 2.73727 13 3.40001V11.8C13 12.4628 12.4031 13 11.6667 13H2.33333C1.59695 13 1 12.4628 1 11.8V3.40001Z" stroke="black" stroke-width="0.53921" stroke-linecap="round" stroke-linejoin="round"/>
<path d="M1 5.79999H13" stroke="black" stroke-width="0.53921" stroke-linecap="round" stroke-linejoin="round"/>
<path d="M9.66602 1V3.4" stroke="black" stroke-width="0.53921" stroke-linecap="round" stroke-linejoin="round"/>
<path d="M4.33203 1V3.4" stroke="black" stroke-width="0.53921" stroke-linecap="round" stroke-linejoin="round"/>
<rect x="1.80078" y="7.3999" width="0.8" height="0.8" fill="black"/>
<rect x="5" y="7.39999" width="0.8" height="0.8" fill="black"/>
<rect x="8.19922" y="7.3999" width="0.8" height="0.8" fill="black"/>
<rect x="1.80078" y="9" width="0.8" height="0.8" fill="black"/>
<rect x="5" y="9" width="0.8" height="0.8" fill="black"/>
<rect x="8.19922" y="9" width="0.8" height="0.8" fill="black"/>
<rect x="3.40039" y="7.3999" width="0.8" height="0.8" fill="black"/>
<rect x="6.59961" y="7.3999" width="0.8" height="0.8" fill="black"/>
<rect x="9.80078" y="7.3999" width="0.8" height="0.8" fill="black"/>
<rect x="11.4004" y="7.3999" width="0.8" height="0.8" fill="black"/>
<rect x="3.40039" y="9" width="0.8" height="0.8" fill="black"/>
<rect x="6.59961" y="9" width="0.8" height="0.8" fill="black"/>
<rect x="9.80078" y="9" width="0.8" height="0.8" fill="black"/>
<rect x="11.4004" y="9" width="0.8" height="0.8" fill="black"/>
<rect x="7.40039" y="5" width="0.8" height="0.8" fill="black"/>
<rect x="3.40039" y="10.6001" width="0.8" height="0.8" fill="black"/>
<rect x="6.59961" y="10.6001" width="0.8" height="0.8" fill="black"/>
<rect x="9.80078" y="10.6001" width="0.8" height="0.8" fill="black"/>
<rect x="11.4004" y="10.6001" width="0.8" height="0.8" fill="black"/>
<rect x="5.80078" y="5" width="0.8" height="0.8" fill="black"/>
<rect x="1.80078" y="10.6001" width="0.8" height="0.8" fill="black"/>
<rect x="5" y="10.6" width="0.8" height="0.8" fill="black"/>
<rect x="8.19922" y="10.6001" width="0.8" height="0.8" fill="black"/>
</svg>
