<svg width="9" height="10" viewBox="0 0 9 10" fill="none" xmlns="http://www.w3.org/2000/svg">
<g clip-path="url(#clip0_239_828)">
<path d="M7.56591 9.95546C8.2865 9.83159 8.81952 9.33027 8.9445 8.63866C9.03192 8.15395 8.91017 7.71457 8.58309 7.33516C8.2869 6.9917 7.90732 6.79848 7.44375 6.76097C6.94909 6.72189 6.5249 6.87311 6.16087 7.19332C6.05345 7.28768 6.05083 7.291 5.92848 7.21715C5.06608 6.69786 4.20282 6.1802 3.33868 5.66416C3.26962 5.62294 3.24762 5.57761 3.27629 5.50317C3.33201 5.34922 3.36114 5.18744 3.3625 5.02432C3.36508 4.86139 3.34089 4.6991 3.29082 4.54352C3.24439 4.39328 3.24782 4.39289 3.38249 4.31181C4.22503 3.80502 5.06938 3.30116 5.91091 2.79301C6.05043 2.7088 6.048 2.71075 6.1754 2.81977C6.45807 3.06164 6.78212 3.20914 7.16351 3.23903C7.67513 3.27928 8.11407 3.12181 8.47588 2.78109C8.76137 2.51206 8.92976 2.17798 8.95903 1.78705C9.01274 1.0675 8.69111 0.545667 8.0535 0.19576C7.90651 0.115268 7.74196 0.0750215 7.5756 0.0453253C7.5437 0.0396596 7.49686 0.0537267 7.491 0H7.10739C7.10234 0.0531406 7.05489 0.041809 7.02339 0.0474747C6.50996 0.141448 6.12069 0.408518 5.86003 0.843802C5.62562 1.23454 5.58282 1.65302 5.70679 2.08811C5.75121 2.24441 5.75181 2.24558 5.61048 2.33076C4.75711 2.84497 3.90239 3.35762 3.04632 3.86871C2.97182 3.91345 2.91892 3.90075 2.85916 3.84624C2.53995 3.55495 2.15835 3.3926 1.72144 3.38752C1.31375 3.38268 0.918273 3.52214 0.6094 3.77968C0.300528 4.03722 0.099539 4.39509 0.044235 4.78597C-0.0831654 5.7003 0.621271 6.51187 1.51105 6.59939C2.02591 6.64999 2.46343 6.49311 2.84523 6.16724C2.94921 6.07854 2.95547 6.07912 3.07136 6.1477C3.92742 6.65801 4.78214 7.17027 5.63552 7.68448C5.74495 7.75051 5.74959 7.7638 5.71426 7.88297C5.55536 8.42083 5.64622 8.91667 5.99995 9.35782C6.24728 9.6665 6.57497 9.86226 6.97393 9.94256C7.01431 9.95038 7.07367 9.93553 7.08659 9.99922H7.49039C7.49221 9.9492 7.53562 9.96034 7.56591 9.95546ZM7.2998 0.598417C7.44119 0.597542 7.58136 0.623708 7.71227 0.675412C7.84318 0.727116 7.96224 0.803339 8.06261 0.899702C8.16299 0.996066 8.2427 1.11067 8.29716 1.23693C8.35162 1.36319 8.37977 1.49862 8.37998 1.63544C8.37988 1.90996 8.26772 2.17333 8.06791 2.36821C7.86809 2.5631 7.59681 2.67371 7.31312 2.67598C7.17171 2.67683 7.03152 2.65062 6.9006 2.59887C6.76969 2.54711 6.65064 2.47083 6.55029 2.37441C6.44995 2.27798 6.37029 2.16331 6.3159 2.037C6.26151 1.91068 6.23345 1.77521 6.23335 1.63837C6.23238 1.36383 6.34403 1.10013 6.54378 0.905155C6.74353 0.710182 7.01507 0.599864 7.29879 0.598417H7.2998ZM1.69055 6.0379C1.40646 6.03759 1.13413 5.9281 0.933453 5.73352C0.73278 5.53894 0.620196 5.27519 0.620464 5.00029C0.620066 4.86428 0.647363 4.72953 0.700797 4.60373C0.754232 4.47793 0.832755 4.36354 0.931883 4.26711C1.03101 4.17069 1.1488 4.0941 1.27852 4.04173C1.40825 3.98936 1.54736 3.96224 1.68792 3.9619C1.82931 3.96103 1.96948 3.98721 2.10037 4.03895C2.23126 4.09069 2.35028 4.16696 2.4506 4.26337C2.55091 4.35979 2.63053 4.47444 2.68488 4.60075C2.73923 4.72705 2.76724 4.8625 2.76729 4.99932C2.76732 5.13599 2.73946 5.27133 2.68532 5.39756C2.63117 5.5238 2.55181 5.63845 2.45177 5.73494C2.35174 5.83143 2.233 5.90786 2.10237 5.95985C1.97174 6.01184 1.83179 6.03836 1.69055 6.0379ZM7.30121 9.40119C7.01738 9.40026 6.74553 9.2904 6.54533 9.09572C6.34512 8.90104 6.23292 8.63745 6.23335 8.3628C6.23322 8.22599 6.26102 8.09051 6.31517 7.96413C6.36931 7.83775 6.44874 7.72298 6.54887 7.62639C6.649 7.52981 6.76787 7.45332 6.89864 7.40133C7.02942 7.34934 7.16952 7.32287 7.3109 7.32343C7.45226 7.32423 7.59207 7.35199 7.72233 7.40512C7.85259 7.45826 7.97074 7.53574 8.07002 7.63311C8.16931 7.73049 8.24777 7.84585 8.30092 7.9726C8.35407 8.09935 8.38087 8.235 8.37977 8.37179C8.37721 8.64661 8.26221 8.90925 8.05994 9.10219C7.85767 9.29514 7.58463 9.40265 7.30061 9.40119H7.30121Z" fill="black"/>
<path d="M6.97408 9.94348C6.57512 9.86318 6.24723 9.66742 6.0001 9.35874C5.64637 8.91759 5.55592 8.42096 5.71441 7.88389C5.74974 7.76471 5.7451 7.75143 5.63567 7.68539C4.78243 7.17079 3.92771 6.65853 3.07151 6.14862C2.95562 6.07945 2.95037 6.07887 2.84538 6.16815C2.46358 6.49403 2.02606 6.65091 1.51121 6.60031C0.621422 6.51278 -0.0838232 5.70161 0.0443848 4.78689C0.0996887 4.396 0.300679 4.03814 0.609551 3.7806C0.918424 3.52306 1.3139 3.38359 1.72159 3.38843C2.1585 3.39351 2.5401 3.55586 2.85931 3.84716C2.91988 3.90167 2.97197 3.91437 3.04647 3.86963C3.90079 3.35659 4.75551 2.84394 5.61063 2.33168C5.75196 2.2465 5.75196 2.24474 5.70694 2.08903C5.58297 1.65394 5.62618 1.23585 5.86018 0.844718C6.12084 0.409434 6.51011 0.142363 7.02354 0.0483902C7.05504 0.0427245 7.10249 0.0540561 7.10754 0.000915527C7.10027 0.00619051 7.09361 0.015568 7.08573 0.0165449C6.08147 0.132594 5.34937 1.14148 5.70734 2.16424C5.73016 2.22891 5.7029 2.24825 5.65586 2.27639C4.77677 2.80193 3.8985 3.32878 3.02103 3.85693C2.9647 3.89073 2.93522 3.88838 2.88717 3.84345C2.50012 3.48162 2.03918 3.32122 1.50071 3.37651C0.53844 3.4742 -0.161151 4.38365 0.0322712 5.29641C0.165931 5.92765 0.55318 6.36313 1.18736 6.55772C1.82698 6.75309 2.39998 6.60383 2.88717 6.1578C2.93583 6.11325 2.9651 6.1111 3.02123 6.1449C3.89614 6.67162 4.77179 7.19638 5.64819 7.71919C5.70977 7.75573 5.7237 7.78562 5.70007 7.85595C5.43074 8.65579 5.82122 9.50585 6.61308 9.85771C6.76572 9.9255 6.93067 9.94914 7.08735 10.0009C7.07382 9.93644 7.01365 9.95129 6.97408 9.94348Z" fill="black"/>
<path d="M7.5213 9.98205C8.44884 9.88046 9.13349 9.0138 8.97681 8.12174C8.86234 7.47077 8.47751 7.01712 7.82738 6.81159C7.1813 6.60743 6.60164 6.75611 6.1094 7.20975C6.06336 7.25235 6.03591 7.25332 5.98543 7.22285C5.10473 6.693 4.22309 6.16472 3.34051 5.63801C3.28357 5.60401 3.27489 5.57549 3.29548 5.51668C3.41655 5.18221 3.41655 4.81785 3.29548 4.48337C3.27529 4.42476 3.28297 4.39604 3.34011 4.36204C4.2204 3.83767 5.09935 3.31122 5.97695 2.78268C6.0353 2.74751 6.06417 2.74731 6.11667 2.79655C6.51583 3.17185 6.99534 3.32932 7.54553 3.25606C8.3493 3.1488 8.9334 2.5199 8.99519 1.71264C9.05051 0.989768 8.53384 0.284288 7.78781 0.0685993C7.69049 0.040466 7.58995 0.0222967 7.49081 -0.000366211C7.49667 0.0533605 7.54351 0.0387079 7.57541 0.0449597C7.74178 0.0746559 7.90633 0.114902 8.05331 0.195395C8.69092 0.545302 9.01255 1.06713 8.95885 1.78668C8.92957 2.17742 8.76118 2.5117 8.47569 2.78072C8.11348 3.12203 7.67454 3.27892 7.16333 3.23867C6.78193 3.20878 6.45768 3.06127 6.17522 2.81941C6.04782 2.71039 6.05024 2.70844 5.91073 2.79264C5.0692 3.3006 4.22484 3.80466 3.3823 4.31144C3.24763 4.39252 3.2442 4.39291 3.29064 4.54315C3.3407 4.69873 3.3649 4.86103 3.36231 5.02396C3.36095 5.18707 3.33183 5.34886 3.2761 5.50281C3.24743 5.57724 3.26944 5.62257 3.33849 5.66379C4.2033 6.17918 5.06657 6.69684 5.92829 7.21679C6.05064 7.29044 6.05327 7.28732 6.16068 7.19295C6.52411 6.87274 6.9481 6.72074 7.44357 6.7606C7.90794 6.79811 8.28671 6.99133 8.5829 7.33479C8.90998 7.7142 9.03173 8.15359 8.94431 8.6383C8.81933 9.32991 8.28631 9.83123 7.56572 9.95509C7.53644 9.95998 7.49303 9.94884 7.49122 9.99944C7.49505 9.9844 7.50737 9.9844 7.5213 9.98205Z" fill="black"/>
</g>
<defs>
<clipPath id="clip0_239_828">
<rect width="9" height="10" fill="white"/>
</clipPath>
</defs>
</svg>
